# xmcd CD database file
#
# Track frame offsets:
#	150
#	16985
#	45800
#	61766
#	80239
#	90159
#	103774
#	129538
#	155536
#	169429
#	189582
#	199949
#	215577
#	232519
#	245309
#	261075
#	278350
#	293396
#	303478
#
# Disc length: 4235 seconds
#
# Revision: 2
# Processed by: cddbd v1.4b41PL1 Copyright (c) Steve Scherf et al.
# Submitted via: Feurio! 1.52 - http://www.feurio.com
#
DISCID=f3108913
DTITLE=Knockout Hits - 47
DYEAR=1900
DGENRE=
TTITLE0=Jumpin Jack Flash
TTITLE1=Jam On It
TTITLE2=Desperado
TTITLE3=Eye Of The Tiger
TTITLE4=Chicago
TTITLE5=Reach Out Ill Be there
TTITLE6=Wild Wild West
TTITLE7=Maggie May
TTITLE8=Young Girls
TTITLE9=The Boys Are Back In Town
TTITLE10=Fox On The Run
TTITLE11=Do The Bearcat
TTITLE12=Tarzan Boy
TTITLE13=Cha Cha Medley
TTITLE14=Two Princess
TTITLE15=Suspicious Minds
TTITLE16=Green Eyes
TTITLE17=Purple People Eater
TTITLE18=Let It Snow
EXTD=
EXTT0=
EXTT1=
EXTT2=
EXTT3=
EXTT4=
EXTT5=
EXTT6=
EXTT7=
EXTT8=
EXTT9=
EXTT10=
EXTT11=
EXTT12=
EXTT13=
EXTT14=
EXTT15=
EXTT16=
EXTT17=
EXTT18=
PLAYORDER=
